<svg width="28" height="22" viewBox="0 0 28 22" fill="none" xmlns="http://www.w3.org/2000/svg">
<path d="M27.354 2.93925C26.3722 3.3699 25.3261 3.65535 24.2355 3.79395C25.3575 3.12405 26.2138 2.07135 26.6164 0.802502C25.5703 1.4262 24.4153 1.86675 23.1844 2.1126C22.1911 1.05495 20.7754 0.399902 19.231 0.399902C16.2346 0.399902 13.8223 2.832 13.8223 5.81355C13.8223 6.24255 13.8586 6.65505 13.9477 7.04775C9.44819 6.8283 5.46674 4.67175 2.79209 1.3866C2.32514 2.19675 2.05124 3.12405 2.05124 4.1223C2.05124 5.9967 3.01649 7.65825 4.45529 8.6202C3.58574 8.6037 2.73269 8.35125 2.00999 7.9536C2.00999 7.9701 2.00999 7.99155 2.00999 8.013C2.00999 10.6431 3.88604 12.8277 6.34619 13.331C5.90564 13.4514 5.42549 13.5092 4.92719 13.5092C4.58069 13.5092 4.23089 13.4894 3.90254 13.4168C4.60379 15.5601 6.59369 17.1359 8.95979 17.187C7.11839 18.6275 4.78034 19.4954 2.24924 19.4954C1.80539 19.4954 1.37969 19.4756 0.953987 19.4211C3.35144 20.9672 6.19274 21.8499 9.25679 21.8499C19.2162 21.8499 24.6612 13.5999 24.6612 6.4488C24.6612 6.20955 24.6529 5.97855 24.6414 5.7492C25.7155 4.9869 26.6181 4.03485 27.354 2.93925Z" fill="white"/>
</svg>
