<svg width="27" height="27" viewBox="0 0 27 27" fill="none" xmlns="http://www.w3.org/2000/svg">
<path fill-rule="evenodd" clip-rule="evenodd" d="M8.60399 0H18.504C23.0596 0 26.754 3.69435 26.754 8.25V18.15C26.754 22.7056 23.0596 26.4 18.504 26.4H8.60399C4.04834 26.4 0.353989 22.7056 0.353989 18.15V8.25C0.353989 3.69435 4.04834 0 8.60399 0ZM18.504 23.9249C21.6885 23.9249 24.279 21.3344 24.279 18.1499V8.24989C24.279 5.06539 21.6885 2.47489 18.504 2.47489H8.60399C5.41949 2.47489 2.82899 5.06539 2.82899 8.24989V18.1499C2.82899 21.3344 5.41949 23.9249 8.60399 23.9249H18.504Z" fill="white"/>
<path fill-rule="evenodd" clip-rule="evenodd" d="M6.95398 13.2001C6.95398 9.55525 9.90913 6.6001 13.554 6.6001C17.1988 6.6001 20.154 9.55525 20.154 13.2001C20.154 16.8449 17.1988 19.8001 13.554 19.8001C9.90913 19.8001 6.95398 16.8449 6.95398 13.2001ZM9.42898 13.2001C9.42898 15.4738 11.2803 17.3251 13.554 17.3251C15.8277 17.3251 17.679 15.4738 17.679 13.2001C17.679 10.9247 15.8277 9.07507 13.554 9.07507C11.2803 9.07507 9.42898 10.9247 9.42898 13.2001Z" fill="white"/>
<circle cx="20.649" cy="6.10455" r="0.87945" fill="white"/>
</svg>
